<?xml version="1.0" standalone="no"?>
<!DOCTYPE svg PUBLIC "-//W3C//DTD SVG 20010904//EN"
 "http://www.w3.org/TR/2001/REC-SVG-20010904/DTD/svg10.dtd">
<svg version="1.0" xmlns="http://www.w3.org/2000/svg"
 width="617.000000pt" height="301.000000pt" viewBox="0 0 617.000000 301.000000"
 preserveAspectRatio="xMidYMid meet">

<g transform="translate(0.000000,301.000000) scale(0.100000,-0.100000)"
fill="#000000" stroke="none">
<path d="M4783 2819 c-154 -142 -171 -162 -161 -179 8 -13 9 -22 1 -32 -5 -7
-115 -159 -243 -338 -128 -179 -240 -333 -250 -343 -16 -18 -17 -6 -12 221 l5
240 -59 -12 -59 -12 -6 -149 c-4 -83 -9 -324 -13 -536 l-6 -386 57 11 58 12 6
94 c4 52 7 170 8 262 l1 167 207 -210 c114 -116 210 -215 214 -220 5 -9 30 -6
128 17 22 5 4 26 -197 227 l-221 222 242 335 c173 239 248 336 264 338 17 3
37 38 104 185 90 201 111 247 107 247 -2 0 -81 -72 -175 -161z"/>
<path d="M2924 2158 l-162 -31 -6 -211 c-3 -116 -8 -357 -12 -535 l-5 -323 47
7 c25 3 52 9 59 11 10 4 15 62 20 222 3 119 8 222 10 228 4 13 61 24 127 24
70 0 99 -34 187 -226 41 -87 76 -161 77 -163 4 -4 115 17 122 23 6 7 -148 328
-175 364 -14 19 -38 41 -53 51 l-28 16 57 27 c72 34 128 89 159 157 21 46 24
63 20 135 -7 119 -52 194 -140 230 -67 28 -133 27 -304 -6z m246 -107 c72 -38
102 -158 60 -240 -37 -74 -98 -110 -240 -142 -127 -28 -120 -31 -120 54 0 41
3 128 6 194 l7 121 81 15 c113 21 165 20 206 -2z"/>
<path d="M2231 2025 c-178 -35 -330 -66 -337 -69 -9 -4 -14 -22 -14 -56 0 -60
-9 -59 165 -25 71 13 130 23 132 21 2 -2 -1 -214 -6 -472 -5 -258 -8 -471 -5
-473 2 -2 27 0 56 5 44 8 53 13 59 34 4 14 8 151 9 305 1 154 5 359 9 455 l6
175 140 27 c77 15 141 27 143 28 1 0 2 25 2 55 0 46 -3 55 -17 54 -10 -1 -164
-30 -342 -64z"/>
<path d="M1520 1888 c-140 -27 -255 -50 -256 -51 -4 -4 -19 -1067 -15 -1067 2
0 120 22 263 50 142 27 263 50 269 50 5 0 9 25 9 56 l0 57 -37 -7 c-21 -3
-116 -21 -212 -40 l-174 -34 6 180 c3 99 7 182 10 184 3 3 74 19 159 35 84 16
163 32 176 34 19 5 22 11 22 60 0 30 -3 55 -7 55 -8 0 -302 -56 -337 -64 -17
-4 -18 4 -14 174 2 98 6 181 9 184 3 4 92 23 197 43 l192 37 0 58 c0 32 -1 58
-2 57 -2 -1 -118 -23 -258 -51z"/>
<path d="M891 1767 l-54 -12 -148 -303 c-81 -167 -153 -318 -159 -335 l-10
-31 -39 74 c-21 41 -88 163 -149 270 -83 148 -114 196 -131 198 -11 2 -46 -2
-76 -8 l-55 -11 0 -57 c0 -31 -5 -270 -10 -531 -5 -261 -8 -476 -7 -478 2 -2
29 2 59 8 l55 11 7 82 c3 44 6 169 6 277 0 108 3 271 7 362 l6 167 17 -37 c20
-44 269 -495 278 -505 4 -3 20 -4 36 -1 27 5 39 27 164 282 74 152 147 305
163 341 l29 65 -5 -125 c-2 -69 -7 -271 -11 -449 l-6 -323 54 7 c29 4 57 10
61 15 7 6 25 673 27 968 l0 92 -27 -1 c-16 0 -52 -6 -82 -12z"/>
<path d="M3653 1069 l-41 -10 -6 -112 c-9 -169 -19 -907 -13 -907 4 0 28 5 55
11 l50 10 6 87 c3 48 9 277 12 510 6 355 4 422 -7 421 -8 -1 -33 -5 -56 -10z"/>
</g>
</svg>
